<mxfile host="app.diagrams.net" modified="2022-09-15T22:10:28.623Z" agent="5.0 (X11)" etag="hC6-Q0gGd87R7Sh3kwBu" version="20.3.1" type="github">
  <diagram id="hNtImKJ2WIE_r6VkvPjx" name="Page-1">
    <mxGraphModel dx="942" dy="1712" grid="1" gridSize="10" guides="1" tooltips="1" connect="1" arrows="1" fold="1" page="1" pageScale="1" pageWidth="850" pageHeight="1100" math="0" shadow="0">
      <root>
        <mxCell id="0" />
        <mxCell id="1" parent="0" />
        <mxCell id="A7mtozfqEf_cMSWf1xiD-2" value="Pessoa" style="rounded=0;whiteSpace=wrap;html=1;" vertex="1" parent="1">
          <mxGeometry x="330" y="-30" width="120" height="60" as="geometry" />
        </mxCell>
        <mxCell id="A7mtozfqEf_cMSWf1xiD-3" value="&lt;div&gt;Cliente&lt;/div&gt;" style="rounded=0;whiteSpace=wrap;html=1;" vertex="1" parent="1">
          <mxGeometry x="160" y="90" width="120" height="60" as="geometry" />
        </mxCell>
        <mxCell id="A7mtozfqEf_cMSWf1xiD-4" value="Acompanhante" style="rounded=0;whiteSpace=wrap;html=1;" vertex="1" parent="1">
          <mxGeometry x="560" y="100" width="120" height="60" as="geometry" />
        </mxCell>
      </root>
    </mxGraphModel>
  </diagram>
</mxfile>
